<svg xmlns="http://www.w3.org/2000/svg" width="512" height="512" viewBox="0 0 512 512"><style>path{transition:all 0.25s ease-in-out;}path:hover{fill:#4d4d4d;}</style><path fill="#3D3D3D" d="M411.945 50h-312c-27.614 0-50 22.386-50 50v312c0 27.614 22.386 50 50 50h312c27.614 0 50-22.386 50-50V100c0-27.614-22.385-50-50-50zm-88.257 110.658H291.7c-11.29 0-13.645 4.625-13.645 16.31v28.226h45.633l-4.39 49.55h-41.243v148.03h-59.11V255.373h-30.74v-50.178h30.74v-39.517c0-37.087 19.83-56.452 63.817-56.452h40.926v51.433z"/></svg>
