<svg xmlns="http://www.w3.org/2000/svg" width="512" height="512" viewBox="0 0 512 512"><style>path{transition:all 0.25s ease-in-out;}path:hover{fill:#4d4d4d;}</style><path fill="#3D3D3D" d="M412 50H100c-27.614 0-50 22.386-50 50v312c0 27.614 22.386 50 50 50h312c27.614 0 50-22.386 50-50V100c0-27.614-22.386-50-50-50zm-40.058 157.125c3.553 79.06-55.408 167.203-159.768 167.203-31.743 0-61.29-9.305-86.164-25.253 29.82 3.515 59.586-4.758 83.218-23.278-24.596-.453-45.356-16.703-52.508-39.035 8.808 1.684 17.473 1.19 25.383-.962-27.03-5.433-45.692-29.784-45.083-55.826 7.577 4.21 16.245 6.74 25.46 7.032-25.034-16.73-32.12-49.786-17.396-75.045 27.723 34.007 69.143 56.386 115.857 58.73-8.198-35.16 18.475-69.02 54.756-69.02 16.168 0 30.776 6.826 41.03 17.75 12.803-2.52 24.832-7.197 35.693-13.638-4.198 13.126-13.11 24.14-24.716 31.098 11.37-1.357 22.204-4.38 32.284-8.85-7.534 11.27-17.062 21.17-28.046 29.095z"/></svg>
