<svg xmlns="http://www.w3.org/2000/svg" width="512" height="512" viewBox="0 0 512 512"><path fill="#FFF" d="M256 90c44.34 0 86.026 17.267 117.38 48.62C404.734 169.973 422 211.66 422 256c0 44.34-17.267 86.025-48.62 117.38C342.026 404.732 300.34 422 256 422s-86.026-17.268-117.38-48.62C107.267 342.025 90 300.34 90 256c0-44.34 17.267-86.026 48.62-117.38S211.66 90 256 90m0-40C142.23 50 50 142.23 50 256s92.23 206 206 206 206-92.23 206-206S369.77 50 256 50zm-42.58 198.356l-61.48-47.225v108.703l61.48-61.477zm148.094-69.178h-208.85l104.342 80.152 104.508-80.152zm-75.262 80.218l-29.255 22.437-29.303-22.508-75.498 75.498H361.68l-75.428-75.427zm14.286-10.958l61.52 61.522V201.254l-61.52 47.184z"/></svg>