<svg xmlns="http://www.w3.org/2000/svg" width="512" height="512" viewBox="0 0 512 512"><path fill="#FFF" d="M256 90c91.74 0 166 74.243 166 166 0 91.742-74.243 166-166 166-91.74 0-166-74.243-166-166 0-91.74 74.244-166 166-166m0-40C142.23 50 50 142.23 50 256s92.23 206 206 206 206-92.23 206-206S369.77 50 256 50zm18.09 297.732v22.816h-32.644V350.14c-15.67-1.34-36.36-7.02-51.604-15.418l10.802-37.623c17.263 6.732 42.45 15.2 61.075 11.134 16.29-3.553 20.396-18.18 1.224-26.443-16.195-7.27-71.928-14.874-71.928-61.485 0-19.31 14.474-45.85 50.432-53.698V143.45h32.645v21.25c13.99.962 28.262 3.546 44.74 8.7-1.648 7.2-8.77 38.447-8.77 38.447-11.38-3.873-29.98-10.643-47.84-9.64-22.066 1.24-23.647 17.355-8.772 24.795 30.516 13.8 74.71 25.534 74.71 66.69.042 31.804-24.736 49.915-54.07 54.04z"/></svg>