<svg xmlns="http://www.w3.org/2000/svg" width="512" height="512" viewBox="0 0 512 512"><path fill="#FFF" d="M256 90c91.74 0 166 74.243 166 166 0 91.742-74.243 166-166 166-91.74 0-166-74.243-166-166 0-91.74 74.244-166 166-166m0-40C142.23 50 50 142.23 50 256s92.23 206 206 206 206-92.23 206-206S369.77 50 256 50zm84.312 159.318c0 39.03-34.37 69.963-92.68 69.963h-17l-13.025 57.02h-40.94l39.986-180.124h67.864c35.996 0 55.795 22.668 55.795 53.142zm-42.953 1.173c0-16.347-13.485-20.686-29.156-20.686h-18.077l-11.975 53.953h16.084c23.375 0 43.123-9.183 43.123-33.266zm54.73-8.752c7.734 61.033-50.013 92.38-110.348 91.54l-13.175 56.05h-28.353l-3.202 14.496h43.803l12.647-55.967c88.2-2.664 122.136-67.008 98.628-106.12z"/></svg>