<svg xmlns="http://www.w3.org/2000/svg" width="512" height="512" viewBox="0 0 512 512"><path fill="#FFF" d="M253.924 244.57h-15.28l11.376-51.255h17.173c14.89 0 27.697 4.12 27.697 19.65 0 22.88-18.76 31.605-40.966 31.605zm197.95 49.032c5.705 17.36-.487 36.42-15.308 47.11l-20.918 15.093c-7.263 5.24-12.656 12.664-15.396 21.188l-7.89 24.56c-5.59 17.398-21.802 29.178-40.076 29.115l-25.794-.085c-8.954-.03-17.683 2.806-24.908 8.093l-20.817 15.23c-14.748 10.79-34.788 10.79-49.537 0l-20.817-15.23c-7.227-5.287-15.954-8.123-24.908-8.093l-25.794.085c-18.274.062-34.486-11.717-40.075-29.116l-7.89-24.56c-2.738-8.523-8.133-15.948-15.395-21.187l-20.918-15.092c-14.82-10.69-21.013-29.75-15.308-47.11l8.053-24.508c2.795-8.506 2.795-17.684 0-26.188l-8.05-24.507c-5.706-17.362.486-36.42 15.307-47.113l20.918-15.092c7.262-5.238 12.656-12.663 15.395-21.188l7.89-24.56c5.59-17.398 21.8-29.177 40.076-29.116l25.794.087c8.954.03 17.682-2.807 24.908-8.094l20.817-15.23c14.75-10.79 34.788-10.79 49.538 0l20.816 15.23c7.227 5.287 15.954 8.123 24.908 8.094l25.794-.086c18.274-.06 34.487 11.72 40.076 29.118l7.89 24.56c2.738 8.523 8.133 15.948 15.396 21.187l20.918 15.092c14.82 10.693 21.013 29.75 15.308 47.113l-8.053 24.505c-2.795 8.506-2.795 17.684 0 26.188l8.05 24.51zM219.13 332.484l12.372-54.166h16.15c55.395 0 88.045-29.386 88.045-66.465 0-28.95-18.81-50.485-53.006-50.485h-64.47l-37.986 171.116h38.895zm127.755-127.832c7.35 57.98-47.512 87.76-104.83 86.96l-12.516 53.25h-26.936l-3.042 13.772h41.61l12.017-53.168c83.79-2.532 116.028-63.66 93.695-100.814z"/></svg>