<svg xmlns="http://www.w3.org/2000/svg" width="512" height="512" viewBox="0 0 512 512"><path fill="#FFF" d="M252.707 241.953h-17.87l13.304-59.947h20.086c17.412 0 32.396 4.82 32.396 22.984 0 26.758-21.942 36.963-47.915 36.963zM462 256c0 113.77-92.23 206-206 206S50 369.77 50 256 142.23 50 256 50s206 92.23 206 206zm-295.48 88.777h45.49l14.473-63.354h18.89c64.788 0 102.976-34.37 102.976-77.736 0-33.86-22-59.047-61.994-59.047h-75.404L166.52 344.777zm194.914-149.51c8.595 67.813-55.57 102.642-122.608 101.707l-14.64 62.28h-31.5l-3.56 16.104h48.67l14.053-62.185c97.998-2.958 135.703-74.452 109.584-117.907z"/></svg>